HIERARCHY
ROOT Hips
{
	OFFSET -3.958830 18.904000 13.208200
	CHANNELS 6 Xposition Yposition Zposition Zrotation Yrotation Xrotation 
	JOINT LHipJoint
	{
		OFFSET 0.000000 0.000000 0.000000
		CHANNELS 3 Zrotation Yrotation Xrotation
		JOINT LeftUpLeg
		{
			OFFSET 1.800000 -1.400000 0.085000
			CHANNELS 3 Zrotation Yrotation Xrotation
			JOINT LeftLeg
			{
				OFFSET 2.215000 -6.000000 0.000000
				CHANNELS 3 Zrotation Yrotation Xrotation
				JOINT LeftFoot
				{
					OFFSET 2.500000 -6.900000 0.000000
					CHANNELS 3 Zrotation Yrotation Xrotation
					JOINT LeftToeBase
					{
						OFFSET 0.200000 -0.500000 1.950000
						CHANNELS 3 Zrotation Yrotation Xrotation
						End Site
						{
							OFFSET 0.000000 0.000000 0.000000
						}
					}
				}
			}
		}
	}
	JOINT RHipJoint
	{
		OFFSET 0.000000 0.000000 0.000000
		CHANNELS 3 Zrotation Yrotation Xrotation
		JOINT RightUpLeg
		{
			OFFSET -1.800000 -1.400000 0.085000
			CHANNELS 3 Zrotation Yrotation Xrotation
			JOINT RightLeg
			{
				OFFSET -2.215000 -6.000000 0.000000
				CHANNELS 3 Zrotation Yrotation Xrotation
				JOINT RightFoot
				{
					OFFSET -2.500000 -6.900000 0.000000
					CHANNELS 3 Zrotation Yrotation Xrotation
					JOINT RightToeBase
					{
						OFFSET -0.200000 -0.500000 1.950000
						CHANNELS 3 Zrotation Yrotation Xrotation
						End Site
						{
							OFFSET 0.000000 0.000000 0.000000
						}
					}
				}
			}
		}
	}
	JOINT LowerBack
	{
		OFFSET 0.000000 0.000000 0.000000
		CHANNELS 3 Zrotation Yrotation Xrotation
		JOINT Spine
		{
			OFFSET -0.087000 1.940000 -0.288900
			CHANNELS 3 Zrotation Yrotation Xrotation
			JOINT Spine1
			{
				OFFSET 0.000000 1.950000 0.060000
				CHANNELS 3 Zrotation Yrotation Xrotation
				JOINT Neck
				{
					OFFSET 0.000000 0.000000 0.000000
					CHANNELS 3 Zrotation Yrotation Xrotation
					JOINT Neck1
					{
						OFFSET 0.000000 1.600000 0.340000
						CHANNELS 3 Zrotation Yrotation Xrotation
						JOINT Head
						{
							OFFSET 0.000000 1.667000 -0.240000
							CHANNELS 3 Zrotation Yrotation Xrotation
							End Site
							{
								OFFSET 0.000000 0.000000 0.000000
							}
						}
					}
				}
				JOINT LeftShoulder
				{
					OFFSET 0.000000 0.000000 0.000000
					CHANNELS 3 Zrotation Yrotation Xrotation
					JOINT LeftArm
					{
						OFFSET 2.700000 1.550000 -0.730000
						CHANNELS 3 Zrotation Yrotation Xrotation
						JOINT LeftForeArm
						{
							OFFSET 5.450000 0.000000 0.000000
							CHANNELS 3 Zrotation Yrotation Xrotation
							JOINT LeftHand
							{
								OFFSET 3.450000 0.000000 0.000000
								CHANNELS 3 Zrotation Yrotation Xrotation
								JOINT LeftHandIndex1
								{
									OFFSET 0.750000 0.000000 0.000000
									CHANNELS 3 Zrotation Yrotation Xrotation
									End Site
									{
										OFFSET 0.000000 0.000000 0.000000
									}
								}
							}
						}
					}
				}
				JOINT RightShoulder
				{
					OFFSET 0.000000 0.000000 0.000000
					CHANNELS 3 Zrotation Yrotation Xrotation
					JOINT RightArm
					{
						OFFSET -2.700000 1.550000 -0.730000
						CHANNELS 3 Zrotation Yrotation Xrotation
						JOINT RightForeArm
						{
							OFFSET -5.450000 0.000000 0.000000
							CHANNELS 3 Zrotation Yrotation Xrotation
							JOINT RightHand
							{
								OFFSET -3.450000 0.000000 0.000000
								CHANNELS 3 Zrotation Yrotation Xrotation
								JOINT RightHandIndex1
								{
									OFFSET -0.750000 0.000000 0.000000
									CHANNELS 3 Zrotation Yrotation Xrotation
									End Site
									{
										OFFSET 0.000000 0.000000 0.000000
									}
								}
							}
						}
					}
				}
			}
		}
	}
}
MOTION
Frames: 12
Frame Time: 0.016667
-0.653800 17.868790 -3.160960 -1.213164 -29.456408 8.818316 -15.490548 12.708620 5.337469 -0.367731 -9.769508 -43.073543 1.937311 5.371567 38.251296 -0.490486 5.483767 2.241297 1.010920 0.774780 1.056390 18.018720 -9.809346 2.774468 1.628781 3.512162 -21.372827 3.762426 -4.586006 21.543743 -0.571325 -2.396494 3.265809 0.359290 -0.487280 0.319660 -2.558012 -3.461316 -8.736977 1.354641 3.449692 30.906733 1.619683 6.005479 7.485779 1.017809 -5.475879 -16.440577 -20.292333 12.612956 53.636126 -7.265710 8.624330 -32.832130 -19.070530 -33.064136 5.273741 -58.129041 -46.372736 10.546228 -40.322303 -32.623740 8.689751 -3.173498 3.255344 0.987830 -0.393020 0.680630 0.063200 18.147444 39.668881 10.219416 54.250950 30.058486 -6.999167 43.522151 35.437908 6.986338 2.193528 -1.555777 0.053030 0.174230 -0.300890 -0.377070 
-0.643660 17.872610 -3.160540 -1.225940 -30.109391 9.271698 -15.490472 12.723918 5.321126 -1.223702 -9.808277 -42.804798 2.450440 5.285473 38.922104 -0.495312 5.570472 2.203088 1.008080 0.744620 1.081990 18.021800 -9.780362 2.795684 1.571041 3.684262 -21.948657 3.764901 -4.578322 21.801394 -0.565830 -2.373361 3.262518 0.348550 -0.516700 0.313500 -2.570206 -3.498565 -8.722203 1.234226 2.942056 30.676862 1.221315 5.399718 7.313299 1.253723 -5.641430 -16.451222 -20.613235 13.183076 53.505684 -7.829000 8.878540 -33.343970 -19.139502 -32.779488 5.289615 -58.633758 -43.921954 8.165085 -39.538784 -31.428326 7.423491 -3.144395 3.262683 1.020420 -0.413100 0.683400 0.039140 17.752548 39.389693 10.455870 55.935773 29.905400 -6.913789 40.785042 36.506172 6.677580 2.200089 -1.529724 0.038200 0.163850 -0.293950 -0.406860 
-0.635410 17.887100 -3.155690 -1.162680 -30.336907 9.748335 -15.503798 12.693020 5.360352 -1.945641 -10.064670 -42.910321 2.755430 5.397504 40.609699 -0.386711 5.821976 2.104411 1.001180 0.744160 1.065000 18.022107 -9.723426 2.792079 1.241208 3.791848 -22.379160 4.308716 -4.677360 21.682013 -0.564526 -2.360134 3.262859 0.319780 -0.537090 0.324640 -2.575190 -3.541310 -8.728910 1.217757 2.436053 30.431488 0.792953 4.829330 6.453864 1.579892 -5.688788 -16.257807 -20.949616 13.780307 53.881406 -7.622460 9.019250 -32.921770 -18.702514 -31.723648 5.235660 -60.280105 -41.509332 6.481920 -39.364215 -30.090009 6.437573 -3.111051 3.331815 1.003460 -0.429440 0.693510 0.036700 16.675566 38.304466 10.593870 57.715695 28.877858 -7.028316 40.616565 38.937026 7.281085 2.250173 -1.545049 0.077320 0.121330 -0.300450 -0.387230 
-0.628940 17.916960 -3.162540 -0.624349 -30.649169 9.749056 -15.548998 12.666221 5.439237 -2.633933 -10.598545 -42.926789 2.646048 5.781781 43.064300 -0.314935 6.308646 1.931529 0.987640 0.724280 1.059740 18.001029 -9.644046 2.726954 0.829160 3.679737 -22.566523 4.269976 -4.602422 21.158416 -0.556099 -2.275009 3.280964 0.313050 -0.537170 0.322110 -2.501878 -3.687020 -8.720760 0.310600 2.392709 30.484335 1.115512 4.490274 6.090038 1.520925 -5.877924 -15.937242 -21.462217 14.708830 53.558286 -7.471560 9.534200 -33.629030 -17.879953 -30.764852 5.173897 -61.503957 -40.132134 5.361544 -39.001779 -29.875481 5.837869 -3.103751 3.333955 1.030260 -0.440790 0.698730 0.027260 15.980567 37.401357 10.426494 58.027700 28.257817 -7.070034 40.848320 39.371634 7.549507 2.265788 -1.515282 0.060390 0.131300 -0.284040 -0.396660 
-0.612870 17.958500 -3.162340 -0.631974 -31.323738 9.815112 -15.574946 12.645902 5.503684 -2.979644 -11.054889 -42.838550 2.808967 6.117696 46.055759 -0.180264 6.872396 1.752340 1.002110 0.741750 1.066370 17.992965 -9.596476 2.669317 0.769932 3.456225 -22.163038 4.189772 -4.471740 20.138333 -0.551495 -2.168622 3.336760 0.312880 -0.540140 0.313350 -2.477111 -3.775417 -8.722593 0.214143 2.187134 30.782547 1.121297 4.281962 5.788787 1.662463 -6.353193 -15.846386 -22.861700 15.338371 52.999662 -8.061180 9.481140 -33.718270 -17.940279 -30.103978 5.105891 -61.577272 -38.876193 4.485675 -39.072372 -29.737106 5.622039 -3.083058 3.326126 1.026780 -0.449470 0.706480 0.047570 15.791793 37.121698 10.357270 57.185790 27.372552 -7.290220 41.693699 38.715422 7.647641 2.281946 -1.508993 0.068690 0.142040 -0.305440 -0.386300 
-0.605660 17.993630 -3.162110 -0.142313 -32.181155 9.857191 -15.634889 12.580611 5.627651 -3.587571 -11.726353 -43.294916 3.444738 6.512246 50.251184 -0.006775 7.682514 1.484455 0.984920 0.730530 1.049090 17.966278 -9.520702 2.572987 0.434983 3.166713 -21.850817 3.929285 -4.278684 18.857464 -0.527761 -2.039140 3.391788 0.302920 -0.520980 0.313930 -2.386930 -3.870555 -8.748753 -0.685459 2.499614 30.482770 1.488134 4.339821 5.885436 1.652891 -6.508346 -15.914107 -23.468681 15.920212 52.863165 -8.109030 9.688790 -33.422820 -17.178941 -29.815913 5.214483 -62.346984 -38.326107 4.045922 -37.510705 -29.430694 4.939235 -3.091917 3.316056 1.019340 -0.439960 0.702870 0.049280 15.121191 37.057941 10.471143 56.594635 26.936373 -7.487436 42.302854 39.592514 8.094772 2.285785 -1.492980 0.067330 0.154110 -0.294420 -0.376090 
-0.590620 18.028240 -3.156130 0.009764 -33.261178 9.649906 -15.660640 12.498114 5.735992 -3.791178 -12.304054 -43.657835 3.950993 7.087883 54.983395 0.204565 8.590175 1.181042 1.016100 0.769040 1.068560 17.963623 -9.500708 2.479489 0.003019 2.821606 -20.907907 3.935969 -4.166746 17.501821 -0.534727 -1.962861 3.425644 0.315630 -0.546760 0.310830 -2.384364 -3.836634 -8.780426 -0.815973 2.663141 30.682703 1.223323 4.576606 6.073822 1.780981 -6.647694 -16.165194 -24.153551 16.441876 52.929245 -8.168900 9.817460 -33.787510 -17.077011 -29.907242 5.320244 -61.726889 -37.886781 3.731261 -35.362900 -29.264924 4.372420 -3.059963 3.310031 1.020200 -0.457440 0.720890 0.059600 14.780143 37.382014 10.626363 55.154689 26.661359 -7.607933 41.063094 40.082134 7.981561 2.277317 -1.484017 0.085900 0.145710 -0.319380 -0.373510 
-0.584150 18.039370 -3.143340 -0.277043 -34.526884 9.502511 -15.663740 12.386612 5.797302 -3.094655 -12.634303 -43.884796 3.563130 8.357708 60.039940 0.419697 9.678800 0.827124 1.041750 0.799120 1.087310 17.983335 -9.500545 2.427413 0.240101 2.582374 -20.001912 3.585152 -4.007957 16.447852 -0.542572 -1.909576 3.438988 0.344150 -0.563660 0.297140 -2.452516 -3.684558 -8.808313 -0.355684 2.721883 30.625768 0.534527 4.945120 6.843448 1.862678 -6.865353 -16.275818 -24.641930 16.536572 52.329798 -8.031110 9.687340 -34.164950 -16.498926 -29.991588 5.567500 -60.919373 -37.744498 3.560597 -31.843655 -30.206139 3.760895 -3.040108 3.277921 1.029660 -0.471060 0.726820 0.062590 13.918695 37.756767 10.633292 53.788794 26.849794 -7.578712 39.095344 39.900596 7.422926 2.255963 -1.468541 0.078560 0.153200 -0.333480 -0.381860 
-0.574440 18.027170 -3.130590 -0.752507 -34.964401 9.981748 -15.686293 12.143378 5.979182 -2.173382 -13.611181 -45.033072 3.562513 9.458274 65.800795 0.654345 10.902010 0.451019 1.003950 0.739000 1.070730 18.007595 -9.426951 2.386466 0.441322 2.518432 -19.676370 3.847007 -4.016401 15.485171 -0.512179 -1.902930 3.440443 0.331220 -0.531330 0.307550 -2.541573 -3.496348 -8.910077 0.617208 2.488732 30.064108 -0.263989 5.084260 7.412158 2.019512 -6.871108 -16.150132 -23.972093 15.938891 51.269450 -8.245030 9.705890 -33.110750 -15.931344 -29.942597 5.805642 -59.829255 -37.687589 4.063952 -26.612965 -30.393056 2.747418 -3.093958 3.225212 1.020920 -0.434880 0.686960 0.039620 12.874765 37.719673 10.455682 52.778552 26.894268 -7.137229 35.881536 38.754517 6.388058 2.222896 -1.433329 0.051470 0.146460 -0.294520 -0.399400 
-0.559860 18.007510 -3.114160 -1.120809 -34.934768 10.043915 -15.681771 11.883781 6.155070 -0.936926 -14.500544 -46.143750 3.090191 11.256661 72.137777 0.940709 12.255816 0.059566 1.018210 0.763020 1.085060 18.052762 -9.388632 2.335565 0.440468 2.559504 -19.562004 4.133425 -4.134932 15.605496 -0.523109 -1.966317 3.412910 0.363540 -0.512460 0.310900 -2.694779 -3.226484 -9.001095 1.888559 1.913294 29.738825 -1.314293 4.922076 8.718230 2.015876 -6.797964 -15.964516 -22.810230 15.172696 49.994132 -8.629600 9.727280 -33.235670 -15.706973 -30.499565 5.978198 -57.599136 -38.117824 4.336690 -20.437652 -29.918738 1.476102 -3.125167 3.146875 1.009600 -0.408230 0.680360 0.043920 12.368031 38.026088 10.125285 51.230067 28.034203 -6.222025 29.985961 37.156641 4.793440 2.168603 -1.377950 0.038440 0.169330 -0.294080 -0.404870 
-0.543820 17.978370 -3.088510 -1.407786 -35.228335 10.054855 -15.685137 11.705864 6.299108 0.178084 -15.113943 -47.001068 2.524827 13.408393 77.991879 1.237419 13.501946 -0.296753 1.042860 0.788250 1.104820 18.075917 -9.343478 2.308410 0.712438 2.737894 -20.036699 3.849763 -4.171614 16.452687 -0.525330 -2.011204 3.381958 0.387290 -0.532510 0.316560 -2.780605 -3.055956 -9.100496 2.737351 1.530781 29.514358 -1.826042 4.822157 9.398390 2.176851 -6.741092 -16.354792 -22.149945 14.692229 49.565510 -8.978130 9.826400 -32.611490 -16.136138 -31.540051 6.269928 -55.058179 -37.762772 4.538090 -14.374549 -27.526236 0.237045 -3.128984 3.110243 0.997210 -0.400940 0.675750 0.039180 12.474444 39.075302 10.029313 49.158978 28.952652 -4.844815 25.018451 33.688596 3.423832 2.140769 -1.345092 0.046430 0.141630 -0.305480 -0.417170 
-0.540850 17.932200 -3.060400 -0.621605 -35.041877 8.854616 -15.721692 11.671109 6.425596 0.431894 -15.997643 -46.920905 2.335468 15.417592 83.646675 1.532836 14.669159 -0.592970 1.029040 0.762950 1.103980 18.053000 -9.306619 2.202395 0.499720 2.601459 -20.036402 2.992566 -4.234940 17.931397 -0.528883 -2.108756 3.342427 0.382570 -0.523470 0.321670 -2.680533 -3.144136 -9.173365 1.954063 1.540320 29.962393 -1.274980 4.710322 9.968445 2.182068 -6.653030 -16.998866 -21.594547 14.370142 49.432831 -9.213050 9.992160 -32.158500 -17.048567 -32.612901 6.521410 -51.407979 -37.048626 4.349181 -9.834905 -25.485361 -0.486953 -3.156985 3.039342 1.001470 -0.387750 0.663670 0.028260 13.563845 40.271782 10.153837 45.811900 29.216867 -3.753472 21.996213 30.295249 2.769876 2.123297 -1.274861 0.032170 0.138370 -0.289780 -0.430130 
